<svg id="svg" version="1.1" xmlns="http://www.w3.org/2000/svg" xmlns:xlink="http://www.w3.org/1999/xlink" width="400" height="111.73794358507735" viewBox="0, 0, 400,111.73794358507735"><g id="svgg"><path id="path0" d="M181.795 3.125 L 181.750 6.250 179.005 6.950 C 177.495 7.335,176.108 7.727,175.922 7.821 C 175.736 7.915,174.983 8.151,174.250 8.346 C 173.517 8.540,172.542 8.803,172.083 8.930 C 171.625 9.058,170.781 9.284,170.208 9.434 C 169.635 9.584,169.167 9.773,169.167 9.854 C 169.167 9.934,169.073 10.000,168.959 10.000 C 168.631 10.000,163.637 11.484,163.083 11.746 C 162.512 12.017,160.751 12.610,158.625 13.249 C 157.823 13.490,157.167 13.749,157.167 13.825 C 157.167 13.902,156.960 14.013,156.708 14.072 C 155.973 14.245,151.925 15.710,151.833 15.836 C 151.787 15.899,150.681 16.345,149.375 16.827 C 148.069 17.309,147.000 17.765,147.000 17.840 C 147.000 17.916,146.831 18.025,146.625 18.082 C 146.419 18.140,145.762 18.399,145.167 18.659 C 144.571 18.918,143.765 19.265,143.375 19.430 C 142.985 19.596,142.667 19.791,142.667 19.865 C 142.667 19.939,142.590 20.000,142.496 20.000 C 142.282 20.000,138.966 21.627,138.842 21.794 C 138.791 21.861,138.487 22.057,138.167 22.229 C 137.846 22.400,137.171 22.763,136.667 23.034 C 136.162 23.305,135.672 23.626,135.577 23.747 C 135.482 23.868,134.985 24.218,134.473 24.525 C 133.157 25.314,130.833 27.230,130.833 27.526 C 130.833 27.611,131.118 27.396,131.466 27.049 C 131.814 26.701,132.495 26.154,132.978 25.833 C 133.461 25.512,133.952 25.163,134.069 25.056 C 134.510 24.653,137.120 23.167,137.387 23.167 C 137.541 23.167,137.668 23.073,137.669 22.958 C 137.674 22.590,137.981 23.202,138.248 24.111 C 138.387 24.585,138.562 24.998,138.636 25.028 C 138.710 25.058,139.085 25.984,139.468 27.085 C 140.495 30.033,140.574 30.242,140.687 30.333 C 140.744 30.379,141.067 31.204,141.406 32.167 C 142.240 34.542,142.380 34.903,142.505 35.000 C 142.564 35.046,142.875 35.840,143.197 36.764 L 143.783 38.445 143.183 38.846 C 142.853 39.067,142.546 39.290,142.500 39.343 C 142.454 39.396,141.985 39.683,141.458 39.982 C 140.930 40.281,140.405 40.613,140.291 40.721 C 140.177 40.829,139.652 41.199,139.125 41.543 C 138.598 41.888,138.167 42.246,138.167 42.339 C 138.167 42.518,138.969 42.060,139.250 41.720 C 139.342 41.609,139.979 41.207,140.667 40.826 C 141.354 40.444,141.992 40.046,142.083 39.941 C 142.175 39.836,143.075 39.343,144.083 38.845 C 145.092 38.348,145.954 37.889,146.000 37.826 C 146.046 37.763,147.021 37.319,148.167 36.838 C 149.313 36.358,150.287 35.917,150.333 35.857 C 150.428 35.735,150.798 35.596,153.583 34.632 C 154.683 34.251,155.621 33.891,155.667 33.832 C 155.756 33.717,157.742 33.096,159.917 32.504 C 160.650 32.304,161.475 32.040,161.750 31.916 C 162.025 31.792,162.813 31.536,163.500 31.345 C 166.964 30.387,167.843 30.129,168.917 29.759 C 170.207 29.314,174.310 28.167,174.613 28.167 C 174.719 28.167,174.831 28.105,174.861 28.029 C 174.912 27.904,179.098 26.683,180.792 26.300 C 181.181 26.212,181.500 26.071,181.500 25.987 C 181.500 25.902,181.575 25.833,181.667 25.833 C 181.773 25.833,181.833 27.167,181.833 29.500 C 181.833 33.762,181.805 33.708,183.328 32.292 C 184.200 31.481,184.938 30.827,187.333 28.744 C 187.838 28.305,188.287 27.897,188.333 27.836 C 188.379 27.775,188.829 27.387,189.333 26.974 C 189.838 26.560,190.621 25.890,191.074 25.486 C 191.527 25.081,192.427 24.283,193.074 23.713 C 193.721 23.143,194.469 22.468,194.736 22.213 C 195.003 21.958,195.451 21.581,195.731 21.375 C 196.308 20.950,197.974 19.468,199.196 18.292 C 199.648 17.856,200.071 17.499,200.134 17.497 C 200.198 17.495,200.633 17.139,201.102 16.705 C 201.570 16.272,202.432 15.506,203.018 15.004 C 203.604 14.503,204.121 14.053,204.167 14.004 C 204.263 13.903,205.309 12.984,206.826 11.667 C 207.407 11.162,208.354 10.337,208.932 9.833 C 209.509 9.329,210.178 8.767,210.419 8.583 C 211.219 7.973,210.892 7.801,207.122 6.848 C 205.176 6.355,203.508 5.895,203.416 5.823 C 203.324 5.752,201.749 5.313,199.916 4.848 C 198.083 4.382,196.457 3.929,196.303 3.840 C 196.148 3.750,194.498 3.291,192.636 2.818 C 190.774 2.345,189.175 1.899,189.083 1.827 C 188.904 1.687,182.417 -0.000,182.057 0.000 C 181.889 0.000,181.831 0.702,181.795 3.125 M59.796 20.247 C 57.762 20.806,55.500 23.173,55.500 24.741 C 55.500 24.868,55.406 25.003,55.292 25.042 C 55.018 25.133,54.994 29.121,55.266 29.298 C 55.366 29.363,55.503 29.642,55.569 29.917 C 55.757 30.697,56.811 32.395,57.304 32.712 C 59.825 34.331,60.313 34.500,62.478 34.500 C 65.405 34.500,67.880 33.007,68.907 30.621 C 69.035 30.325,69.266 29.791,69.422 29.433 C 69.739 28.709,69.720 24.915,69.399 24.696 C 69.307 24.634,69.099 24.226,68.935 23.790 C 67.810 20.790,63.663 19.182,59.796 20.247 M0.000 52.833 L 0.000 82.000 8.833 82.000 L 17.667 82.000 17.667 79.979 L 17.667 77.958 18.381 78.604 C 18.775 78.959,19.393 79.496,19.756 79.796 C 20.487 80.401,22.572 81.456,23.340 81.610 C 23.611 81.664,23.833 81.769,23.833 81.843 C 23.833 82.211,26.477 82.583,29.083 82.582 C 31.693 82.581,35.000 82.165,35.000 81.838 C 35.000 81.765,35.340 81.621,35.755 81.516 C 36.777 81.259,39.333 80.064,39.333 79.844 C 39.333 79.747,39.427 79.666,39.542 79.665 C 40.421 79.659,45.167 74.616,45.167 73.688 C 45.167 73.598,45.289 73.401,45.439 73.251 C 45.792 72.898,46.544 71.044,47.006 69.388 C 47.206 68.671,47.429 68.008,47.502 67.917 C 48.430 66.753,48.433 54.775,47.505 53.583 C 47.434 53.492,47.260 52.967,47.118 52.417 C 46.718 50.868,46.016 48.977,45.600 48.333 C 45.393 48.012,44.935 47.262,44.581 46.667 C 43.061 44.102,39.491 40.983,37.125 40.152 C 36.781 40.032,36.500 39.880,36.500 39.816 C 36.500 39.406,32.371 38.547,29.722 38.406 C 26.791 38.249,22.741 38.950,21.938 39.752 C 21.802 39.889,21.634 40.000,21.565 40.000 C 21.231 40.000,19.160 41.499,18.466 42.243 L 17.682 43.083 17.674 33.375 L 17.667 23.667 8.833 23.667 L 0.000 23.667 0.000 52.833 M292.678 24.919 C 288.800 26.128,289.489 32.731,293.546 33.238 C 296.413 33.596,298.333 31.871,298.333 28.937 C 298.333 25.718,295.827 23.938,292.678 24.919 M138.426 25.542 C 138.561 25.979,138.637 26.085,138.743 25.979 C 138.871 25.852,138.640 25.167,138.469 25.167 C 138.382 25.167,138.363 25.335,138.426 25.542 M140.399 30.764 C 140.454 30.909,140.500 31.059,140.500 31.097 C 140.500 31.135,140.568 31.167,140.651 31.167 C 140.734 31.167,140.763 31.017,140.715 30.833 C 140.667 30.650,140.554 30.500,140.463 30.500 C 140.372 30.500,140.343 30.619,140.399 30.764 M127.043 46.757 L 127.083 58.097 127.660 59.047 C 128.203 59.945,130.058 61.667,130.480 61.667 C 130.583 61.667,130.667 61.728,130.667 61.803 C 130.667 62.064,134.158 63.499,134.798 63.501 C 134.955 63.502,135.294 63.612,135.552 63.747 C 137.309 64.663,150.072 65.592,154.059 65.094 L 155.000 64.976 155.000 55.509 L 155.000 46.042 154.479 45.938 C 154.193 45.880,153.711 45.833,153.410 45.833 C 153.108 45.833,152.836 45.777,152.806 45.708 C 152.775 45.640,150.482 45.299,147.710 44.951 C 142.893 44.346,140.180 43.891,140.000 43.659 C 139.954 43.600,139.692 43.498,139.417 43.433 C 137.707 43.029,137.631 42.994,137.863 42.709 C 138.050 42.479,138.007 42.482,137.574 42.736 C 137.073 43.029,137.041 43.025,135.511 42.513 C 131.254 41.086,128.481 38.989,127.401 36.378 L 127.003 35.417 127.043 46.757 M53.500 60.500 L 53.500 82.000 62.333 82.000 L 71.167 82.000 71.167 60.500 L 71.167 39.000 62.333 39.000 L 53.500 39.000 53.500 60.500 M78.000 45.750 L 78.000 52.500 86.263 52.500 L 94.525 52.500 94.138 53.016 C 93.924 53.300,93.337 53.972,92.833 54.510 C 92.329 55.049,91.429 56.016,90.833 56.660 C 90.237 57.304,89.337 58.271,88.833 58.809 C 87.261 60.487,85.005 62.934,82.750 65.407 C 81.925 66.312,81.135 67.171,80.993 67.318 C 80.852 67.464,79.971 68.416,79.035 69.434 L 77.333 71.284 77.333 76.642 L 77.333 82.000 97.833 82.000 L 118.333 82.000 118.333 75.251 L 118.333 68.503 109.236 68.460 L 100.138 68.417 100.944 67.568 C 101.387 67.102,102.313 66.096,103.000 65.334 C 103.688 64.572,104.625 63.550,105.083 63.063 C 105.542 62.576,106.404 61.652,107.000 61.010 C 107.596 60.368,108.496 59.404,109.000 58.867 C 109.504 58.330,110.442 57.311,111.083 56.603 C 111.725 55.894,112.587 54.958,113.000 54.523 C 113.412 54.088,114.275 53.140,114.917 52.417 C 115.558 51.694,116.402 50.782,116.792 50.390 L 117.500 49.679 117.500 44.340 L 117.500 39.000 97.750 39.000 L 78.000 39.000 78.000 45.750 M332.052 40.516 C 329.985 40.700,326.833 41.504,326.833 41.847 C 326.833 41.931,326.719 42.000,326.579 42.000 C 326.151 42.000,324.069 43.122,323.476 43.672 C 323.168 43.957,322.729 44.290,322.500 44.412 C 321.960 44.699,319.963 46.925,319.492 47.765 C 318.631 49.299,318.667 49.423,318.667 44.870 L 318.667 40.667 315.500 40.667 L 312.333 40.667 312.333 68.917 L 312.333 97.167 315.500 97.167 L 318.667 97.167 318.667 85.294 L 318.667 73.422 319.021 74.083 C 319.522 75.017,320.084 75.754,321.243 76.996 C 322.206 78.029,322.552 78.315,323.958 79.248 C 324.302 79.476,324.667 79.731,324.768 79.816 C 325.376 80.321,327.385 81.100,329.167 81.522 C 329.671 81.641,330.125 81.798,330.176 81.869 C 330.539 82.377,338.808 82.365,339.162 81.856 C 339.211 81.787,339.700 81.627,340.250 81.501 C 341.981 81.104,343.832 80.364,344.978 79.610 C 345.586 79.210,346.323 78.760,346.615 78.609 C 346.907 78.459,347.251 78.186,347.378 78.004 C 347.506 77.822,347.960 77.406,348.388 77.079 C 348.816 76.753,349.271 76.283,349.399 76.034 C 349.528 75.786,349.898 75.311,350.222 74.979 C 350.545 74.646,351.154 73.708,351.574 72.895 C 351.994 72.082,352.408 71.330,352.494 71.224 C 352.758 70.898,353.635 67.999,353.947 66.417 C 354.362 64.316,354.361 58.574,353.947 56.374 C 353.397 53.457,351.452 48.837,350.502 48.188 C 350.317 48.062,350.167 47.853,350.167 47.723 C 350.167 47.434,346.902 44.167,346.613 44.167 C 346.500 44.167,346.155 43.936,345.846 43.654 C 345.537 43.372,344.902 42.970,344.434 42.761 C 343.966 42.552,343.094 42.148,342.496 41.863 C 341.081 41.189,339.050 40.716,336.667 40.505 C 334.546 40.318,334.260 40.319,332.052 40.516 M378.750 40.499 C 376.435 40.711,373.000 41.516,373.000 41.845 C 373.000 41.930,372.901 42.000,372.780 42.000 C 372.459 42.000,369.472 43.478,369.262 43.741 C 369.164 43.864,368.749 44.170,368.341 44.422 C 367.398 45.004,365.400 47.028,364.758 48.050 C 364.488 48.481,364.207 48.833,364.133 48.833 C 363.917 48.833,361.925 52.996,361.621 54.083 C 360.128 59.430,360.464 66.306,362.422 70.467 C 363.358 72.456,363.729 73.161,364.000 73.468 C 364.137 73.623,364.579 74.191,364.980 74.730 C 365.382 75.270,365.838 75.832,365.994 75.980 C 368.114 77.999,369.494 79.047,370.625 79.493 C 370.923 79.611,371.167 79.765,371.167 79.835 C 371.167 80.155,375.635 81.656,376.611 81.664 C 376.810 81.665,376.997 81.739,377.028 81.827 C 377.217 82.373,385.515 82.405,386.231 81.863 C 386.333 81.785,386.867 81.626,387.417 81.508 C 389.001 81.170,391.430 80.245,392.379 79.619 C 392.858 79.304,393.498 78.918,393.801 78.763 C 394.104 78.609,394.629 78.216,394.968 77.891 C 395.306 77.566,395.853 77.126,396.184 76.913 C 396.514 76.701,397.039 76.203,397.350 75.808 C 397.662 75.412,398.160 74.874,398.458 74.610 C 398.777 74.329,399.000 73.973,399.000 73.744 C 399.000 73.495,398.806 73.221,398.458 72.979 C 398.160 72.771,397.365 72.091,396.691 71.467 C 395.179 70.068,395.348 70.055,393.650 71.708 C 391.060 74.231,388.313 75.858,385.667 76.437 C 384.105 76.779,380.316 76.828,378.917 76.525 C 377.605 76.240,376.105 75.788,376.000 75.646 C 375.954 75.584,375.321 75.250,374.593 74.905 C 372.615 73.967,370.173 71.484,369.179 69.403 C 368.789 68.586,368.383 67.861,368.277 67.792 C 367.971 67.594,368.316 67.445,370.888 66.665 C 372.187 66.271,373.287 65.900,373.333 65.841 C 373.402 65.751,377.164 64.506,378.667 64.075 C 378.896 64.009,379.121 63.904,379.167 63.841 C 379.212 63.779,380.525 63.332,382.083 62.849 C 383.642 62.366,385.005 61.898,385.112 61.809 C 385.220 61.720,386.495 61.284,387.946 60.840 C 389.396 60.397,390.808 59.914,391.083 59.768 C 391.358 59.622,391.654 59.502,391.741 59.501 C 392.019 59.499,396.747 57.938,396.833 57.820 C 396.879 57.757,397.610 57.497,398.458 57.243 C 399.922 56.805,400.000 56.758,400.000 56.318 C 400.000 53.941,397.657 48.077,396.210 46.831 C 396.049 46.692,395.555 46.148,395.112 45.622 C 394.670 45.097,394.220 44.666,394.112 44.664 C 394.005 44.663,393.579 44.357,393.167 43.985 C 392.446 43.334,390.020 42.000,389.557 42.000 C 389.434 42.000,389.333 41.928,389.333 41.840 C 389.333 41.056,382.339 40.169,378.750 40.499 M214.334 54.208 C 214.335 68.600,214.359 69.121,215.154 71.792 C 215.352 72.457,215.585 73.000,215.671 73.000 C 215.757 73.000,215.876 73.206,215.935 73.458 C 216.071 74.034,217.327 76.142,217.854 76.680 C 218.072 76.902,218.510 77.403,218.828 77.792 C 219.145 78.181,219.463 78.500,219.534 78.500 C 219.605 78.500,220.095 78.828,220.623 79.228 C 221.898 80.195,223.277 80.862,225.000 81.344 C 225.779 81.562,226.456 81.794,226.503 81.859 C 226.891 82.393,234.792 82.374,234.970 81.839 C 235.002 81.744,235.190 81.666,235.389 81.665 C 236.305 81.659,239.900 80.261,240.546 79.659 C 240.729 79.489,241.143 79.224,241.467 79.070 C 242.132 78.755,244.833 76.112,244.833 75.778 C 244.833 75.658,245.056 75.310,245.329 75.005 C 245.601 74.700,245.910 74.190,246.015 73.872 L 246.206 73.292 246.687 74.295 C 246.952 74.847,247.281 75.341,247.418 75.394 C 247.555 75.447,247.667 75.600,247.667 75.736 C 247.667 76.094,250.377 78.737,251.091 79.076 C 251.424 79.234,251.852 79.518,252.042 79.708 C 252.493 80.160,254.591 81.037,256.167 81.433 C 256.854 81.606,257.460 81.806,257.512 81.878 C 257.888 82.389,265.251 82.368,265.901 81.853 C 266.001 81.774,266.535 81.596,267.086 81.459 C 268.350 81.144,270.594 80.216,270.948 79.862 C 271.096 79.714,271.393 79.501,271.608 79.390 C 273.006 78.664,275.419 75.925,276.209 74.167 C 276.476 73.571,276.869 72.708,277.082 72.250 C 278.063 70.140,278.060 70.184,278.122 54.792 L 278.179 40.667 275.014 40.667 L 271.848 40.667 271.793 53.875 C 271.739 67.047,271.655 69.000,271.144 69.000 C 271.065 69.000,271.000 69.120,271.000 69.267 C 271.000 71.081,267.550 74.512,264.957 75.276 C 264.477 75.418,264.001 75.601,263.901 75.682 C 263.320 76.156,258.410 76.149,257.535 75.673 C 257.378 75.588,256.837 75.393,256.333 75.240 C 252.787 74.166,250.125 70.935,249.716 67.208 C 249.663 66.727,249.556 66.333,249.477 66.333 C 249.398 66.333,249.333 60.558,249.333 53.500 L 249.333 40.667 246.174 40.667 L 243.015 40.667 242.956 53.958 C 242.904 65.831,242.868 67.363,242.614 68.305 C 242.281 69.545,241.679 71.000,241.500 71.000 C 241.430 71.000,241.283 71.219,241.172 71.487 C 240.612 72.838,238.024 74.710,235.833 75.349 C 235.421 75.469,235.042 75.626,234.992 75.698 C 234.670 76.156,229.183 76.144,228.594 75.684 C 228.496 75.608,228.193 75.492,227.919 75.427 C 225.751 74.907,223.302 73.060,222.381 71.250 C 222.147 70.792,221.893 70.376,221.816 70.327 C 220.841 69.698,220.668 67.128,220.667 53.292 L 220.667 40.667 217.500 40.667 L 214.333 40.667 214.334 54.208 M291.167 61.333 L 291.167 82.000 294.333 82.000 L 297.500 82.000 297.500 61.333 L 297.500 40.667 294.333 40.667 L 291.167 40.667 291.167 61.333 M335.446 46.178 C 337.344 46.437,340.295 47.377,340.667 47.841 C 340.712 47.898,341.331 48.339,342.042 48.820 C 342.752 49.302,343.333 49.747,343.333 49.809 C 343.333 49.872,343.690 50.294,344.125 50.748 C 344.560 51.202,345.000 51.725,345.102 51.911 C 345.205 52.098,345.628 52.850,346.043 53.583 C 348.104 57.220,348.409 62.869,346.791 67.417 C 346.595 67.967,346.384 68.454,346.320 68.500 C 346.257 68.546,345.963 69.047,345.666 69.614 C 344.795 71.279,341.895 74.163,340.583 74.667 C 340.400 74.738,339.674 75.066,338.970 75.396 C 336.274 76.661,329.200 76.840,328.333 75.666 C 328.287 75.604,327.875 75.412,327.417 75.239 C 326.378 74.849,324.754 73.936,324.421 73.555 C 324.327 73.448,323.846 73.021,323.353 72.605 C 322.859 72.189,322.372 71.701,322.269 71.519 C 322.042 71.115,321.065 69.650,320.860 69.406 C 320.122 68.525,319.000 64.643,319.000 62.968 C 319.000 62.630,318.925 62.307,318.833 62.250 C 318.630 62.124,318.610 60.388,318.810 60.264 C 318.889 60.216,319.003 59.630,319.064 58.963 C 319.235 57.101,320.313 53.514,320.804 53.175 C 320.877 53.125,321.208 52.633,321.540 52.082 C 322.126 51.108,324.458 48.667,324.803 48.667 C 324.897 48.667,325.299 48.419,325.696 48.117 C 327.751 46.550,331.993 45.707,335.446 46.178 M385.667 46.475 C 388.914 47.340,391.532 49.400,392.943 52.204 L 393.470 53.250 393.110 53.412 C 392.912 53.501,392.711 53.628,392.663 53.694 C 392.615 53.760,391.340 54.200,389.830 54.673 C 388.319 55.145,387.046 55.590,387.000 55.660 C 386.954 55.731,386.729 55.842,386.500 55.908 C 384.818 56.389,381.234 57.571,381.167 57.667 C 381.121 57.732,380.821 57.865,380.500 57.963 C 377.929 58.747,375.402 59.584,375.333 59.673 C 375.287 59.732,374.012 60.177,372.500 60.661 C 370.988 61.145,369.675 61.597,369.583 61.665 C 369.492 61.733,369.004 61.923,368.500 62.086 C 367.996 62.249,367.479 62.421,367.351 62.468 C 367.038 62.584,367.206 58.081,367.577 56.417 C 367.898 54.977,369.536 51.620,370.281 50.875 C 370.584 50.571,370.958 50.132,371.111 49.898 C 371.378 49.490,373.297 48.067,374.395 47.463 C 376.892 46.088,382.400 45.606,385.667 46.475 M174.874 46.611 L 173.831 46.683 173.874 56.300 L 173.917 65.917 174.500 65.963 C 177.817 66.224,187.600 67.587,187.917 67.832 C 188.008 67.903,188.815 68.126,189.710 68.328 C 190.604 68.529,191.293 68.763,191.242 68.847 C 191.185 68.938,191.308 68.938,191.550 68.846 C 192.399 68.523,196.576 70.273,198.729 71.854 C 200.491 73.148,201.833 75.134,201.833 76.446 C 201.833 76.659,201.908 76.833,202.000 76.833 C 202.109 76.833,202.167 72.972,202.167 65.583 C 202.167 58.550,202.107 54.333,202.008 54.333 C 201.920 54.333,201.799 54.072,201.739 53.752 C 201.520 52.585,198.941 49.833,198.067 49.833 C 197.938 49.833,197.833 49.772,197.833 49.698 C 197.833 49.408,194.849 48.309,193.000 47.918 C 192.679 47.850,192.342 47.738,192.250 47.668 C 191.383 47.008,179.571 46.290,174.874 46.611 M26.481 52.844 C 26.883 53.067,27.351 53.332,27.521 53.431 C 27.907 53.658,28.753 54.813,29.131 55.632 C 29.288 55.972,29.474 56.293,29.544 56.345 C 30.318 56.920,30.281 63.851,29.501 64.332 C 29.416 64.385,29.191 64.779,29.002 65.207 C 28.492 66.361,27.072 67.668,25.861 68.101 C 24.716 68.509,21.167 68.201,21.167 67.693 C 21.167 67.629,20.785 67.278,20.319 66.913 C 19.064 65.930,18.011 63.565,18.002 61.708 C 18.001 61.410,17.925 61.167,17.833 61.167 C 17.742 61.167,17.667 60.754,17.667 60.250 C 17.667 59.746,17.742 59.333,17.833 59.333 C 17.925 59.333,18.000 59.087,18.000 58.785 C 18.000 56.265,19.935 53.245,21.962 52.600 C 23.207 52.204,25.557 52.331,26.481 52.844 M190.667 69.250 C 190.549 69.392,190.490 69.546,190.536 69.591 C 190.582 69.637,190.716 69.559,190.833 69.417 C 190.951 69.275,191.010 69.121,190.964 69.075 C 190.918 69.029,190.784 69.108,190.667 69.250 M190.142 69.615 C 190.065 69.794,187.939 71.167,187.738 71.167 C 187.653 71.167,187.373 71.348,187.117 71.568 C 186.860 71.789,185.923 72.333,185.033 72.776 C 184.144 73.220,183.323 73.672,183.208 73.780 C 183.094 73.888,182.575 74.135,182.056 74.329 C 181.536 74.524,180.430 75.007,179.597 75.402 C 178.765 75.798,177.296 76.403,176.333 76.748 C 175.371 77.092,174.283 77.508,173.917 77.671 C 173.550 77.835,172.057 78.320,170.599 78.749 C 169.141 79.179,167.828 79.598,167.682 79.680 C 167.536 79.763,166.034 80.209,164.343 80.671 C 162.653 81.134,161.188 81.580,161.087 81.664 C 160.986 81.747,160.606 81.887,160.243 81.973 C 159.880 82.060,159.171 82.244,158.667 82.383 C 158.162 82.522,157.000 82.837,156.083 83.083 C 155.167 83.329,154.342 83.591,154.250 83.665 C 154.158 83.740,152.733 84.174,151.083 84.631 C 149.433 85.087,147.952 85.515,147.792 85.582 C 147.519 85.694,147.500 85.470,147.500 82.184 C 147.500 79.481,147.452 78.667,147.292 78.668 C 147.110 78.669,146.003 79.581,144.000 81.380 C 143.679 81.669,143.004 82.233,142.500 82.634 C 141.996 83.035,141.372 83.619,141.113 83.932 C 140.854 84.244,140.544 84.500,140.424 84.500 C 140.304 84.500,139.945 84.788,139.627 85.140 C 139.309 85.492,138.869 85.906,138.649 86.059 C 138.178 86.387,136.443 87.922,135.277 89.042 C 134.823 89.477,134.421 89.833,134.382 89.833 C 134.295 89.833,129.019 94.445,127.845 95.547 C 127.531 95.842,127.103 96.199,126.893 96.341 C 126.446 96.644,124.642 98.251,123.489 99.375 C 123.042 99.810,122.618 100.168,122.547 100.169 C 122.475 100.171,122.042 100.526,121.583 100.958 C 121.125 101.390,120.319 102.104,119.792 102.544 C 118.194 103.880,118.141 103.841,123.250 105.114 C 124.258 105.365,125.121 105.620,125.167 105.680 C 125.212 105.740,126.787 106.181,128.667 106.660 C 130.546 107.139,132.158 107.590,132.250 107.663 C 132.342 107.736,133.992 108.192,135.917 108.678 C 137.842 109.163,139.454 109.609,139.500 109.669 C 139.596 109.794,146.852 111.667,147.241 111.667 C 147.466 111.667,147.500 111.256,147.500 108.526 L 147.500 105.386 150.625 104.586 C 152.344 104.146,153.788 103.728,153.835 103.656 C 153.882 103.585,154.144 103.474,154.418 103.410 C 155.909 103.061,160.441 101.774,160.586 101.658 C 160.680 101.584,161.943 101.179,163.393 100.759 C 164.843 100.339,166.183 99.914,166.371 99.813 C 166.559 99.713,167.958 99.219,169.481 98.717 C 171.004 98.214,172.325 97.744,172.417 97.671 C 172.508 97.599,173.146 97.347,173.833 97.112 C 176.890 96.067,177.578 95.812,177.661 95.694 C 177.710 95.625,178.425 95.315,179.250 95.004 C 180.075 94.694,181.506 94.088,182.430 93.657 C 183.354 93.226,184.291 92.817,184.513 92.748 C 185.018 92.590,190.269 89.891,190.833 89.499 C 191.063 89.340,191.625 89.019,192.083 88.786 C 192.542 88.553,193.085 88.203,193.292 88.008 C 193.498 87.813,193.668 87.713,193.669 87.785 C 193.671 87.857,193.727 87.841,193.794 87.748 C 193.862 87.656,194.235 87.374,194.625 87.121 C 195.015 86.869,195.333 86.588,195.333 86.498 C 195.333 86.408,194.977 86.584,194.542 86.890 C 193.372 87.712,191.519 88.698,191.346 88.591 C 191.263 88.540,191.166 88.587,191.130 88.695 C 191.093 88.803,190.853 88.297,190.596 87.571 C 190.339 86.844,190.069 86.212,189.997 86.167 C 189.924 86.121,189.703 85.596,189.505 85.000 C 188.924 83.253,188.100 81.090,187.982 81.000 C 187.922 80.954,187.756 80.579,187.613 80.167 C 186.704 77.541,186.131 76.076,185.993 76.028 C 185.905 75.997,185.833 75.872,185.833 75.750 C 185.833 75.628,185.695 75.203,185.526 74.805 C 185.107 73.820,184.941 73.110,185.160 73.246 C 185.255 73.305,185.334 73.292,185.335 73.218 C 185.336 73.144,185.947 72.708,186.692 72.250 C 187.438 71.792,188.170 71.304,188.320 71.167 C 188.471 71.029,188.785 70.817,189.019 70.695 C 189.680 70.351,190.428 69.708,190.309 69.588 C 190.250 69.528,190.175 69.540,190.142 69.615 M185.959 75.417 C 186.003 75.646,186.113 75.833,186.204 75.833 C 186.295 75.833,186.323 75.715,186.268 75.570 C 186.212 75.425,186.167 75.237,186.167 75.153 C 186.167 75.069,186.102 75.000,186.023 75.000 C 185.944 75.000,185.915 75.188,185.959 75.417 M187.952 80.500 C 188.000 80.683,188.098 80.833,188.171 80.833 C 188.243 80.833,188.263 80.683,188.215 80.500 C 188.167 80.317,188.069 80.167,187.996 80.167 C 187.924 80.167,187.904 80.317,187.952 80.500 M198.410 83.848 C 197.956 84.314,197.265 84.918,196.875 85.189 C 196.485 85.461,196.168 85.773,196.169 85.883 C 196.171 86.006,196.234 85.987,196.333 85.833 C 196.422 85.696,196.496 85.636,196.497 85.701 C 196.499 85.765,196.671 85.653,196.879 85.451 C 197.087 85.249,197.527 84.858,197.856 84.583 C 198.423 84.109,199.434 83.000,199.300 83.000 C 199.266 83.000,198.865 83.382,198.410 83.848 M189.899 85.430 C 189.954 85.575,190.000 85.763,190.000 85.847 C 190.000 85.931,190.065 86.000,190.144 86.000 C 190.223 86.000,190.251 85.813,190.207 85.583 C 190.164 85.354,190.054 85.167,189.963 85.167 C 189.872 85.167,189.843 85.285,189.899 85.430 M195.667 86.083 C 195.549 86.225,195.490 86.379,195.536 86.425 C 195.582 86.471,195.716 86.392,195.833 86.250 C 195.951 86.108,196.010 85.954,195.964 85.909 C 195.918 85.863,195.784 85.941,195.667 86.083 " stroke="none" fill="#f0f8ff" fill-rule="evenodd"></path><path id="path1" d="M137.669 22.958 C 137.668 23.073,137.541 23.167,137.387 23.167 C 137.120 23.167,134.510 24.653,134.069 25.056 C 133.952 25.163,133.464 25.512,132.983 25.833 C 132.503 26.154,131.841 26.676,131.513 26.992 C 131.185 27.308,130.806 27.586,130.670 27.608 C 130.534 27.630,130.391 27.745,130.351 27.863 C 130.312 27.981,129.879 28.490,129.390 28.996 C 128.900 29.501,128.500 29.965,128.500 30.026 C 128.500 30.087,128.294 30.452,128.042 30.837 C 127.790 31.222,127.578 31.585,127.571 31.643 C 127.565 31.702,127.425 32.191,127.262 32.730 C 126.070 36.649,129.240 40.412,135.502 42.510 C 137.034 43.023,138.167 42.933,138.167 42.297 C 138.167 42.227,138.598 41.888,139.125 41.543 C 139.652 41.199,140.177 40.829,140.291 40.721 C 140.405 40.613,140.930 40.281,141.458 39.982 C 141.985 39.683,142.454 39.396,142.500 39.343 C 142.546 39.290,142.853 39.067,143.183 38.846 L 143.783 38.445 143.197 36.764 C 142.875 35.840,142.564 35.046,142.505 35.000 C 142.380 34.903,142.240 34.542,141.406 32.167 C 141.067 31.204,140.744 30.379,140.687 30.333 C 140.574 30.242,140.495 30.033,139.468 27.085 C 139.085 25.984,138.710 25.058,138.636 25.028 C 138.562 24.998,138.387 24.585,138.248 24.111 C 137.981 23.202,137.674 22.590,137.669 22.958 M138.724 25.534 C 138.814 25.879,138.744 26.142,138.604 25.986 C 138.434 25.798,138.331 25.167,138.469 25.167 C 138.556 25.167,138.671 25.332,138.724 25.534 M140.715 30.833 C 140.763 31.017,140.734 31.167,140.651 31.167 C 140.568 31.167,140.500 31.135,140.500 31.097 C 140.500 31.059,140.454 30.909,140.399 30.764 C 140.343 30.619,140.372 30.500,140.463 30.500 C 140.554 30.500,140.667 30.650,140.715 30.833 M191.527 68.856 C 191.312 68.935,190.996 69.169,190.824 69.375 C 190.652 69.581,190.509 69.701,190.506 69.641 C 190.502 69.582,190.287 69.732,190.026 69.975 C 189.766 70.218,189.337 70.529,189.073 70.667 C 188.809 70.804,188.471 71.029,188.320 71.167 C 188.170 71.304,187.438 71.792,186.692 72.250 C 185.947 72.708,185.336 73.144,185.335 73.218 C 185.334 73.292,185.255 73.305,185.160 73.246 C 184.941 73.110,185.107 73.820,185.526 74.805 C 185.695 75.203,185.833 75.628,185.833 75.750 C 185.833 75.872,185.905 75.997,185.993 76.028 C 186.131 76.076,186.704 77.541,187.613 80.167 C 187.756 80.579,187.922 80.954,187.982 81.000 C 188.100 81.090,188.924 83.253,189.505 85.000 C 189.703 85.596,189.924 86.121,189.997 86.167 C 190.069 86.212,190.339 86.844,190.596 87.571 C 190.853 88.297,191.093 88.803,191.130 88.695 C 191.166 88.587,191.265 88.541,191.350 88.593 C 191.435 88.646,191.915 88.454,192.417 88.167 C 192.932 87.872,193.421 87.697,193.540 87.766 C 193.655 87.832,193.694 87.825,193.626 87.750 C 193.557 87.674,193.895 87.348,194.376 87.024 C 194.857 86.700,195.267 86.468,195.288 86.509 C 195.310 86.550,195.450 86.407,195.601 86.191 C 195.816 85.885,195.907 85.848,196.019 86.025 C 196.129 86.198,196.162 86.180,196.164 85.948 C 196.166 85.763,196.241 85.693,196.359 85.766 C 196.473 85.836,196.506 85.812,196.441 85.707 C 196.381 85.609,196.580 85.374,196.885 85.186 C 197.189 84.998,197.575 84.693,197.742 84.509 C 197.908 84.325,198.121 84.222,198.215 84.280 C 198.308 84.338,198.336 84.306,198.277 84.211 C 198.218 84.115,198.464 83.770,198.825 83.444 C 199.185 83.119,199.605 82.661,199.758 82.428 C 199.911 82.194,200.103 82.044,200.185 82.095 C 200.267 82.145,200.333 82.096,200.333 81.987 C 200.333 81.877,200.565 81.410,200.848 80.950 C 201.131 80.490,201.387 79.995,201.416 79.849 C 201.446 79.703,201.552 79.372,201.652 79.114 C 201.752 78.856,201.833 78.462,201.833 78.239 C 201.833 78.016,201.908 77.833,202.000 77.833 C 202.092 77.833,202.167 77.608,202.167 77.333 C 202.167 77.058,202.092 76.833,202.000 76.833 C 201.908 76.833,201.833 76.659,201.833 76.446 C 201.833 75.207,200.535 73.206,198.963 72.022 C 196.656 70.284,192.474 68.504,191.527 68.856 M186.167 75.153 C 186.167 75.237,186.212 75.425,186.268 75.570 C 186.323 75.715,186.295 75.833,186.204 75.833 C 186.113 75.833,186.003 75.646,185.959 75.417 C 185.915 75.188,185.944 75.000,186.023 75.000 C 186.102 75.000,186.167 75.069,186.167 75.153 M188.215 80.500 C 188.263 80.683,188.243 80.833,188.171 80.833 C 188.098 80.833,188.000 80.683,187.952 80.500 C 187.904 80.317,187.924 80.167,187.996 80.167 C 188.069 80.167,188.167 80.317,188.215 80.500 M190.207 85.583 C 190.251 85.813,190.223 86.000,190.144 86.000 C 190.065 86.000,190.000 85.931,190.000 85.847 C 190.000 85.763,189.954 85.575,189.899 85.430 C 189.843 85.285,189.872 85.167,189.963 85.167 C 190.054 85.167,190.164 85.354,190.207 85.583 " stroke="none" fill="#f0f7ff" fill-rule="evenodd"></path></g></svg>